<svg width="211" height="97" viewBox="0 0 211 97" fill="none" xmlns="http://www.w3.org/2000/svg">
<path fill-rule="evenodd" clip-rule="evenodd" d="M47.6072 0.841309C73.9382 0.841309 95.2145 22.1176 95.2145 48.4486C95.2145 74.7795 73.9382 96.0558 47.6072 96.0558C21.2763 96.0558 0 74.7795 0 48.4486C0 22.1176 21.2763 0.841309 47.6072 0.841309ZM3.29136 58.3227V38.5745H9.52145C11.8724 38.5745 13.4006 38.692 14.1059 38.9271C15.1638 39.2798 16.1042 39.8675 16.8095 40.8079C17.5148 41.7483 17.8674 43.0413 17.8674 44.687C17.8674 45.8625 17.6323 46.9204 17.2797 47.7433C16.8095 48.5661 16.3393 49.2714 15.634 49.7416C14.9287 50.2118 14.3409 50.5644 13.6357 50.682C12.6953 50.9171 11.4022 50.9171 9.639 50.9171H7.17047V58.3227H3.29136ZM7.17047 41.8658V47.5082H9.28635C10.8145 47.5082 11.8724 47.3906 12.3426 47.1555C12.8128 46.9204 13.283 46.6853 13.5181 46.2151C13.7532 45.7449 13.9883 45.2747 13.9883 44.687C13.9883 43.9817 13.7532 43.394 13.4006 42.9238C13.0479 42.4536 12.4602 42.2185 11.8724 41.9834C11.4022 41.8658 10.4618 41.8658 9.05125 41.8658H7.17047ZM36.3226 58.3227H32.2084L30.5627 53.8558H22.922L21.2763 58.3227H17.1621L24.5677 38.5745H28.6819L36.3226 58.3227ZM29.2696 50.4469L26.6836 43.1589L24.0975 50.4469H29.2696ZM38.4384 58.3227V38.5745H46.5493C48.5476 38.5745 50.0758 38.8096 51.0162 39.1622C51.9566 39.5148 52.6618 40.1026 53.2496 41.043C53.8373 41.9834 54.0724 43.0413 54.0724 44.0992C54.0724 45.6274 53.6022 46.8029 52.7794 47.7433C51.9566 48.6837 50.6635 49.2714 49.0178 49.624C49.8407 50.0942 50.546 50.682 51.0162 51.2697C51.6039 51.8575 52.3092 52.9154 53.2496 54.4435L55.6006 58.3227H51.0162L48.195 53.9733C47.2546 52.4452 46.5493 51.5048 46.1967 51.0346C45.844 50.682 45.4914 50.3293 45.0212 50.2118C44.551 50.0942 43.9632 49.9767 43.0228 49.9767H42.3176V58.2051C42.3176 58.3226 38.4384 58.3227 38.4384 58.3227ZM42.3176 46.9204H45.1387C47.0195 46.9204 48.195 46.8029 48.5476 46.6853C49.0178 46.5678 49.3705 46.2151 49.6056 45.8625C49.8407 45.5098 49.9582 44.9221 49.9582 44.3343C49.9582 43.6291 49.8407 43.1589 49.488 42.6887C49.1354 42.336 48.6652 41.9834 48.0774 41.8658C47.7248 41.8658 46.7844 41.7483 45.2563 41.7483H42.3176C42.3176 41.8658 42.3176 46.9204 42.3176 46.9204ZM74.8786 58.3227H70.7644L69.1187 53.8558H61.478L59.8323 58.3227H55.7181L63.1237 38.5745H67.2379L74.8786 58.3227ZM67.8256 50.4469L65.2396 43.1589L62.6535 50.4469H67.8256ZM76.9944 38.5745H84.0474C85.693 38.5745 86.8685 38.692 87.6914 38.9271C88.7493 39.2798 89.8072 39.8675 90.5125 40.6903C91.3354 41.5132 91.9231 42.5711 92.3933 43.8642C92.8635 45.1572 92.9811 46.6853 92.9811 48.5661C92.9811 50.2118 92.746 51.6224 92.3933 52.7979C91.9231 54.2084 91.2178 55.3839 90.395 56.3243C89.6897 57.0296 88.8669 57.4998 87.6914 57.8525C86.8685 58.0876 85.693 58.3227 84.2824 58.3227H76.9944V38.5745ZM80.8735 41.8658V54.9137H83.6947C84.7526 54.9137 85.5755 54.7962 86.0457 54.6786C86.6334 54.5611 87.2212 54.2084 87.5738 53.8558C88.044 53.5031 88.2791 52.7979 88.6318 51.975C88.8669 51.0346 88.9844 49.8591 88.9844 48.331C88.9844 46.8029 88.8669 45.6274 88.6318 44.8045C88.3967 43.9817 88.044 43.394 87.5738 42.9238C87.1036 42.4536 86.5159 42.1009 85.8106 41.9834C85.2228 41.8658 84.1649 41.7483 82.6368 41.7483H80.8735V41.8658ZM98.2708 35.2831V25.6441H99.3287V26.5845C99.5638 26.2318 99.9164 25.9967 100.152 25.7616C100.504 25.6441 100.857 25.5265 101.327 25.5265C101.915 25.5265 102.385 25.6441 102.855 25.9967C103.325 26.3494 103.678 26.702 103.913 27.2898C104.148 27.8775 104.266 28.4653 104.266 29.1706C104.266 29.8759 104.148 30.4636 103.913 31.0513C103.678 31.6391 103.325 32.1093 102.855 32.3444C102.385 32.697 101.915 32.8146 101.327 32.8146C100.974 32.8146 100.622 32.697 100.269 32.5795C99.9164 32.4619 99.6813 32.2268 99.4462 31.9917V35.4006H98.2708V35.2831ZM99.3287 29.1706C99.3287 30.1109 99.5638 30.6987 99.9164 31.1689C100.269 31.6391 100.739 31.7566 101.209 31.7566C101.68 31.7566 102.15 31.5215 102.503 31.0513C102.855 30.5811 103.09 29.8759 103.09 29.053C103.09 28.1126 102.855 27.5249 102.503 27.0547C102.15 26.5845 101.68 26.3494 101.209 26.3494C100.739 26.3494 100.269 26.5845 99.9164 27.0547C99.5638 27.6424 99.3287 28.3477 99.3287 29.1706ZM110.496 30.346L111.671 30.4636C111.436 31.1689 111.084 31.7566 110.613 32.1093C110.143 32.4619 109.438 32.697 108.615 32.697C107.557 32.697 106.852 32.3444 106.147 31.7566C105.559 31.1689 105.206 30.2285 105.206 29.1706C105.206 27.9951 105.559 27.0547 106.147 26.4669C106.734 25.8792 107.557 25.5265 108.498 25.5265C109.438 25.5265 110.143 25.8792 110.731 26.4669C111.319 27.0547 111.671 27.9951 111.671 29.1706C111.671 29.2881 111.671 29.2881 111.671 29.5232H106.499C106.499 30.2285 106.734 30.8162 107.204 31.2864C107.557 31.6391 108.027 31.8742 108.615 31.8742C109.085 31.8742 109.438 31.7566 109.673 31.5215C110.026 31.2864 110.261 30.9338 110.496 30.346ZM106.617 28.4653H110.496C110.496 27.8775 110.261 27.4073 110.026 27.1722C109.673 26.702 109.203 26.4669 108.615 26.4669C108.027 26.4669 107.675 26.702 107.204 27.0547C106.852 27.4073 106.617 27.8775 106.617 28.4653ZM113.199 25.6441H114.375V28.7004C114.728 28.7004 114.963 28.5828 115.198 28.4653C115.315 28.3477 115.55 27.8775 115.903 27.1722C116.138 26.5845 116.373 26.2318 116.491 26.1143C116.608 25.9967 116.843 25.8792 116.961 25.7616C117.196 25.6441 117.431 25.6441 117.901 25.6441H118.136V26.702H117.784C117.431 26.702 117.314 26.702 117.196 26.8196C117.079 26.9371 116.961 27.1722 116.726 27.6424C116.491 28.1126 116.373 28.4653 116.256 28.5828C116.138 28.7004 115.903 28.9355 115.55 29.053C116.021 29.1706 116.608 29.6408 117.079 30.4636L118.372 32.5795H117.079L115.786 30.4636C115.55 29.9934 115.315 29.7583 115.08 29.6408C114.845 29.5232 114.61 29.4057 114.375 29.4057V32.5795H113.199V25.6441ZM119.782 25.6441H125.307V32.5795H124.131V26.702H120.958V30.1109C120.958 30.9338 120.958 31.404 120.84 31.7566C120.84 31.9917 120.605 32.2268 120.37 32.4619C120.135 32.697 119.782 32.697 119.312 32.697C119.077 32.697 118.724 32.697 118.372 32.697V31.7566H118.842C119.077 31.7566 119.312 31.7566 119.312 31.6391C119.43 31.6391 119.43 31.5215 119.547 31.404C119.547 31.2864 119.547 30.9338 119.547 30.346V25.6441H119.782ZM131.537 31.7566C131.067 32.1093 130.714 32.3444 130.244 32.5795C129.891 32.697 129.421 32.8146 128.951 32.8146C128.246 32.8146 127.658 32.5795 127.188 32.2268C126.835 31.8742 126.6 31.404 126.6 30.8162C126.6 30.4636 126.718 30.1109 126.835 29.8759C126.953 29.6408 127.188 29.4057 127.423 29.1706C127.658 29.053 128.011 28.8179 128.246 28.8179C128.481 28.7004 128.833 28.7004 129.304 28.7004C130.244 28.5828 130.949 28.4653 131.42 28.3477C131.42 28.2302 131.42 28.1126 131.42 27.9951C131.42 27.5249 131.302 27.1722 131.067 26.9371C130.714 26.702 130.362 26.5845 129.774 26.5845C129.186 26.5845 128.833 26.702 128.598 26.8196C128.363 27.0547 128.128 27.4073 128.011 27.8775L126.835 27.76C126.953 27.2898 127.07 26.8196 127.305 26.5845C127.54 26.2318 127.893 25.9967 128.363 25.8792C128.833 25.7616 129.304 25.6441 129.891 25.6441C130.479 25.6441 130.949 25.7616 131.302 25.8792C131.655 25.9967 131.89 26.2318 132.125 26.3494C132.242 26.5845 132.477 26.8196 132.477 27.1722C132.477 27.4073 132.477 27.76 132.477 28.2302V29.7583C132.477 30.8162 132.477 31.5215 132.595 31.8742C132.595 32.1093 132.713 32.4619 132.83 32.697H131.655C131.655 32.4619 131.537 32.1093 131.537 31.7566ZM131.42 29.1706C130.949 29.2881 130.362 29.5232 129.539 29.6408C129.069 29.7583 128.716 29.7583 128.481 29.8759C128.246 29.9934 128.128 30.1109 128.011 30.2285C127.893 30.346 127.893 30.5811 127.893 30.8162C127.893 31.1689 128.011 31.404 128.246 31.6391C128.481 31.8742 128.833 31.9917 129.304 31.9917C129.774 31.9917 130.126 31.8742 130.479 31.6391C130.832 31.404 131.067 31.1689 131.302 30.8162C131.419 30.5811 131.537 30.1109 131.537 29.6408C131.42 29.6408 131.42 29.1706 131.42 29.1706ZM134.476 25.6441H136.239L138.12 31.1689L140.118 25.6441H141.764V32.5795H140.588V26.9371L138.59 32.5795H137.532L135.651 26.702V32.5795H134.476C134.476 32.697 134.476 25.6441 134.476 25.6441ZM143.645 25.6441H144.82V28.5828H148.111V25.6441H149.287V32.5795H148.111V29.5232H144.82V32.5795H143.645C143.645 32.697 143.645 25.6441 143.645 25.6441ZM150.58 29.1706C150.58 27.8775 150.933 26.9371 151.638 26.3494C152.226 25.8792 152.931 25.5265 153.871 25.5265C154.812 25.5265 155.635 25.8792 156.222 26.4669C156.81 27.0547 157.163 27.9951 157.163 29.053C157.163 29.9934 157.045 30.6987 156.81 31.1689C156.575 31.6391 156.105 32.1093 155.635 32.3444C155.164 32.5795 154.577 32.8146 153.989 32.8146C153.048 32.8146 152.226 32.4619 151.638 31.8742C150.933 31.2864 150.58 30.346 150.58 29.1706ZM151.873 29.1706C151.873 30.1109 152.108 30.6987 152.461 31.1689C152.813 31.6391 153.284 31.8742 153.989 31.8742C154.577 31.8742 155.047 31.6391 155.399 31.1689C155.752 30.6987 155.987 29.9934 155.987 29.1706C155.987 28.3477 155.752 27.6424 155.399 27.1722C155.047 26.702 154.577 26.4669 153.989 26.4669C153.401 26.4669 152.931 26.702 152.461 27.1722C151.991 27.6424 151.873 28.3477 151.873 29.1706ZM158.103 29.7583V28.5828H161.747V29.7583H158.103ZM98.2708 65.9633H103.796V72.8987H102.62V66.9037H99.4462V72.8987H98.2708V65.9633ZM105.559 75.6023V65.9633H106.617V66.9037C106.852 66.5511 107.204 66.316 107.44 66.0809C107.792 65.9633 108.145 65.8458 108.615 65.8458C109.203 65.8458 109.673 65.9633 110.143 66.316C110.613 66.6686 110.966 67.0213 111.201 67.609C111.436 68.1967 111.554 68.7845 111.554 69.4898C111.554 70.1951 111.436 70.7828 111.201 71.3706C110.966 71.9583 110.613 72.4285 110.143 72.6636C109.673 73.0162 109.203 73.1338 108.615 73.1338C108.262 73.1338 107.91 73.0162 107.557 72.8987C107.204 72.7811 106.969 72.546 106.734 72.311V75.7199C106.734 75.6023 105.559 75.6023 105.559 75.6023ZM106.617 69.4898C106.617 70.4302 106.852 71.0179 107.204 71.4881C107.557 71.9583 108.027 72.0759 108.498 72.0759C108.968 72.0759 109.438 71.8408 109.791 71.3706C110.143 70.9004 110.378 70.1951 110.378 69.3722C110.378 68.4318 110.143 67.8441 109.791 67.3739C109.438 66.9037 108.968 66.6686 108.498 66.6686C108.027 66.6686 107.557 66.9037 107.204 67.3739C106.852 67.9616 106.617 68.5494 106.617 69.4898ZM112.494 69.4898C112.494 68.1967 112.847 67.2564 113.552 66.6686C114.14 66.1984 114.845 65.8458 115.786 65.8458C116.726 65.8458 117.549 66.1984 118.136 66.7862C118.724 67.3739 119.077 68.3143 119.077 69.3722C119.077 70.3126 118.959 71.0179 118.724 71.4881C118.489 71.9583 118.019 72.4285 117.549 72.6636C117.079 72.8987 116.491 73.1338 115.903 73.1338C114.963 73.1338 114.14 72.7811 113.552 72.1934C112.847 71.4881 112.494 70.6653 112.494 69.4898ZM113.787 69.4898C113.787 70.4302 114.022 71.0179 114.375 71.4881C114.728 71.9583 115.198 72.1934 115.903 72.1934C116.491 72.1934 116.961 71.9583 117.314 71.4881C117.666 71.0179 117.901 70.3126 117.901 69.4898C117.901 68.6669 117.666 67.9616 117.314 67.4915C116.961 67.0213 116.491 66.7862 115.903 66.7862C115.315 66.7862 114.845 67.0213 114.375 67.4915C113.905 67.8441 113.787 68.5494 113.787 69.4898ZM120.487 65.9633H121.663V71.253L124.954 65.9633H126.247V72.8987H125.072V67.609L121.781 72.8987H120.487V65.9633ZM129.421 69.7249V68.7845C129.891 68.7845 130.244 68.7845 130.479 68.7845C130.714 68.7845 130.832 68.6669 130.949 68.4318C131.067 68.3143 131.184 68.0792 131.184 67.7265C131.184 67.3739 131.067 67.1388 130.832 67.0213C130.597 66.7862 130.362 66.7862 130.009 66.7862C129.304 66.7862 128.833 67.1388 128.598 67.9616L127.423 67.7265C127.775 66.4335 128.598 65.7282 129.891 65.7282C130.597 65.7282 131.184 65.9633 131.655 66.316C132.125 66.6686 132.242 67.2564 132.242 67.7265C132.242 68.3143 132.007 68.7845 131.42 69.0196C131.772 69.2547 132.007 69.4898 132.242 69.7249C132.36 69.96 132.477 70.3126 132.477 70.7828C132.477 71.3706 132.242 71.9583 131.772 72.311C131.302 72.6636 130.714 72.8987 129.891 72.8987C128.363 72.8987 127.423 72.1934 127.188 70.7828L128.246 70.5477C128.363 71.0179 128.598 71.3706 128.833 71.6057C129.186 71.8408 129.539 71.9583 129.891 71.9583C130.244 71.9583 130.597 71.8408 130.832 71.6057C131.067 71.3706 131.184 71.1355 131.184 70.7828C131.184 70.5477 131.067 70.3126 130.949 70.0775C130.832 69.8424 130.597 69.7249 130.362 69.7249C130.126 69.7249 129.891 69.6073 129.304 69.6073C129.656 69.7249 129.656 69.7249 129.421 69.7249ZM134.006 65.9633H136.709C137.414 65.9633 137.885 65.9633 138.237 66.0809C138.59 66.1984 138.825 66.4335 139.06 66.6686C139.295 67.0213 139.413 67.3739 139.413 67.7265C139.413 68.0792 139.295 68.3143 139.178 68.5494C139.06 68.7845 138.825 69.0196 138.59 69.1371C138.943 69.2547 139.178 69.4898 139.413 69.7249C139.648 70.0775 139.765 70.4302 139.765 70.7828C139.765 71.4881 139.53 71.9583 139.06 72.1934C138.59 72.5461 138.002 72.6636 137.179 72.6636H134.006V65.9633ZM135.299 68.902H136.592C137.062 68.902 137.414 68.902 137.65 68.7845C137.885 68.7845 138.002 68.6669 138.12 68.4318C138.237 68.3143 138.355 68.0792 138.355 67.8441C138.355 67.4914 138.237 67.2564 138.002 67.0213C137.767 66.9037 137.297 66.7862 136.709 66.7862H135.416L135.299 68.902ZM135.299 71.9583H136.827C137.532 71.9583 138.002 71.8408 138.237 71.7232C138.472 71.6057 138.59 71.253 138.59 70.9004C138.59 70.6653 138.472 70.4302 138.355 70.3126C138.237 70.0775 138.002 69.96 137.767 69.96C137.532 69.96 137.179 69.8424 136.709 69.8424H135.299V71.9583ZM140.588 69.4898C140.588 68.1967 140.941 67.2564 141.646 66.6686C142.234 66.1984 142.939 65.8458 143.88 65.8458C144.82 65.8458 145.643 66.1984 146.231 66.7862C146.818 67.3739 147.171 68.3143 147.171 69.3722C147.171 70.3126 147.053 71.0179 146.818 71.4881C146.583 71.9583 146.113 72.4285 145.643 72.6636C145.173 72.8987 144.585 73.1338 143.997 73.1338C143.057 73.1338 142.234 72.7811 141.646 72.1934C140.941 71.4881 140.588 70.6653 140.588 69.4898ZM141.764 69.4898C141.764 70.4302 141.999 71.0179 142.352 71.4881C142.704 71.9583 143.174 72.1934 143.88 72.1934C144.467 72.1934 144.938 71.9583 145.29 71.4881C145.643 71.0179 145.878 70.3126 145.878 69.4898C145.878 68.6669 145.643 67.9616 145.29 67.4915C144.938 67.0213 144.467 66.7862 143.88 66.7862C143.292 66.7862 142.822 67.0213 142.352 67.4915C141.999 67.8441 141.764 68.5494 141.764 69.4898ZM149.052 65.9633H153.871V71.9583H154.577V74.897H153.636V72.8987H148.111V74.897H147.171V71.9583H147.759C148.699 70.7828 149.169 68.7845 149.052 65.9633ZM150.11 66.9037C149.992 69.1371 149.64 70.7828 149.052 71.9583H152.813V66.9037H150.11ZM160.572 70.3126L161.747 70.4302C161.63 71.253 161.277 71.8408 160.807 72.311C160.337 72.7811 159.631 73.0162 158.926 73.0162C157.986 73.0162 157.163 72.6636 156.692 72.0759C156.105 71.4881 155.87 70.5477 155.87 69.3722C155.87 68.6669 155.987 67.9616 156.222 67.3739C156.457 66.7862 156.81 66.4335 157.398 66.0809C157.868 65.8458 158.456 65.6107 159.043 65.6107C159.749 65.6107 160.454 65.8458 160.924 66.1984C161.394 66.5511 161.747 67.1388 161.865 67.8441L160.689 67.9616C160.572 67.4914 160.336 67.1388 160.101 66.9037C159.866 66.6686 159.514 66.5511 159.043 66.5511C158.456 66.5511 157.986 66.7862 157.633 67.1388C157.28 67.609 157.045 68.1967 157.045 69.1371C157.045 70.0775 157.28 70.7828 157.633 71.1355C157.986 71.6057 158.456 71.7232 159.043 71.7232C159.514 71.7232 159.866 71.6057 160.219 71.253C160.219 71.3706 160.454 70.9004 160.572 70.3126ZM162.1 65.9633H167.742V66.9037H165.509V72.8987H164.333V66.9037H162.1V65.9633ZM168.8 65.9633H171.504C172.209 65.9633 172.679 65.9633 173.032 66.0809C173.384 66.1984 173.62 66.4335 173.855 66.6686C174.09 67.0213 174.207 67.3739 174.207 67.7265C174.207 68.0792 174.09 68.3143 173.972 68.5494C173.855 68.7845 173.62 69.0196 173.384 69.1371C173.737 69.2547 173.972 69.4898 174.207 69.7249C174.442 70.0775 174.56 70.4302 174.56 70.7828C174.56 71.4881 174.325 71.9583 173.855 72.1934C173.384 72.5461 172.797 72.6636 171.974 72.6636H168.8V65.9633ZM169.976 68.902H171.269C171.739 68.902 172.091 68.902 172.326 68.7845C172.562 68.7845 172.679 68.6669 172.797 68.4318C172.914 68.3143 173.032 68.0792 173.032 67.8441C173.032 67.4914 172.914 67.2564 172.679 67.0213C172.444 66.9037 171.974 66.7862 171.386 66.7862H170.093C169.975 66.9037 169.976 68.902 169.976 68.902ZM169.976 71.9583H171.504C172.209 71.9583 172.679 71.8408 172.914 71.7232C173.149 71.6057 173.267 71.253 173.267 70.9004C173.267 70.6653 173.149 70.4302 173.032 70.3126C172.914 70.0775 172.679 69.96 172.444 69.96C172.209 69.96 171.856 69.8424 171.386 69.8424H169.976V71.9583ZM180.555 70.6653L181.73 70.7828C181.495 71.4881 181.143 72.0759 180.672 72.4285C180.202 72.7811 179.497 73.0162 178.674 73.0162C177.616 73.0162 176.911 72.6636 176.206 72.0759C175.618 71.4881 175.265 70.5477 175.265 69.4898C175.265 68.3143 175.618 67.3739 176.206 66.7862C176.793 66.1984 177.616 65.8458 178.557 65.8458C179.497 65.8458 180.202 66.1984 180.79 66.7862C181.378 67.3739 181.73 68.3143 181.73 69.4898C181.73 69.6073 181.73 69.6073 181.73 69.8424H176.558C176.558 70.5477 176.793 71.1355 177.264 71.6057C177.616 71.9583 178.086 72.1934 178.674 72.1934C179.144 72.1934 179.497 72.0759 179.732 71.8408C180.085 71.4881 180.32 71.1355 180.555 70.6653ZM176.676 68.7845H180.555C180.555 68.1967 180.32 67.7265 180.085 67.4915C179.732 67.0213 179.262 66.7862 178.674 66.7862C178.086 66.7862 177.734 67.0213 177.264 67.3739C176.911 67.7265 176.676 68.1967 176.676 68.7845ZM183.258 65.9633H184.434V68.902H187.725V65.9633H188.901V72.8987H187.725V69.8424H184.434V72.8987H183.258V65.9633ZM190.664 65.9633H191.84V68.902H195.131V65.9633H196.306V72.8987H195.131V69.8424H191.84V72.8987H190.664V65.9633ZM202.536 72.0759C202.066 72.4285 201.714 72.6636 201.243 72.8987C200.891 73.0162 200.421 73.1338 199.95 73.1338C199.245 73.1338 198.657 72.8987 198.187 72.5461C197.835 72.1934 197.599 71.7232 197.599 71.1355C197.599 70.7828 197.717 70.4302 197.835 70.1951C197.952 69.96 198.187 69.7249 198.422 69.4898C198.657 69.3722 199.01 69.1371 199.245 69.1371C199.48 69.0196 199.833 69.0196 200.303 69.0196C201.243 68.902 201.949 68.7845 202.419 68.6669C202.419 68.5494 202.419 68.4318 202.419 68.3143C202.419 67.8441 202.301 67.4914 202.066 67.2564C201.714 67.0213 201.361 66.9037 200.773 66.9037C200.186 66.9037 199.833 67.0213 199.598 67.1388C199.363 67.3739 199.128 67.7265 199.01 68.1967L197.835 68.0792C197.952 67.609 198.07 67.1388 198.305 66.9037C198.54 66.5511 198.893 66.316 199.363 66.1984C199.833 66.0809 200.303 65.9633 200.891 65.9633C201.479 65.9633 201.949 66.0809 202.301 66.1984C202.654 66.316 202.889 66.5511 203.124 66.6686C203.242 66.9037 203.477 67.1388 203.477 67.4915C203.477 67.7265 203.477 68.0792 203.477 68.5494V70.0775C203.477 71.1355 203.477 71.8408 203.594 72.1934C203.594 72.4285 203.712 72.7811 203.83 73.0162H202.654C202.654 72.6636 202.654 72.4285 202.536 72.0759ZM202.536 69.4898C202.066 69.6073 201.479 69.8424 200.656 69.96C200.186 70.0775 199.833 70.0775 199.598 70.1951C199.363 70.3126 199.245 70.4302 199.128 70.5477C199.01 70.6653 199.01 70.9004 199.01 71.1355C199.01 71.4881 199.128 71.7232 199.363 71.9583C199.598 72.1934 199.95 72.311 200.421 72.311C200.891 72.311 201.243 72.1934 201.596 71.9583C201.949 71.7232 202.184 71.4881 202.419 71.1355C202.536 70.9004 202.654 70.4302 202.654 69.96L202.536 69.4898ZM211 65.9633V72.8987H209.825V70.1951H209.119C208.649 70.1951 208.414 70.1951 208.179 70.3126C207.944 70.4302 207.709 70.7828 207.238 71.3706L206.18 72.8987H204.77L206.063 71.0179C206.416 70.4302 206.886 70.0775 207.238 70.0775C206.533 69.96 206.063 69.7249 205.71 69.3722C205.358 69.0196 205.24 68.5494 205.24 67.9616C205.24 67.3739 205.475 66.9037 205.828 66.5511C206.298 66.1984 206.886 65.9633 207.709 65.9633H211ZM209.825 66.9037H208.179C207.474 66.9037 207.003 67.0213 206.768 67.2564C206.533 67.4914 206.416 67.7265 206.416 68.0792C206.416 68.5494 206.533 68.7845 206.886 69.0196C207.238 69.2547 207.709 69.2547 208.414 69.2547H209.707L209.825 66.9037ZM98.2708 76.6603H99.4462V79.7165C99.7989 79.7165 100.034 79.599 100.269 79.4814C100.387 79.3639 100.622 78.8937 100.974 78.1884C101.209 77.6006 101.445 77.248 101.562 77.1304C101.68 77.0129 101.915 76.8953 102.032 76.7778C102.267 76.6603 102.503 76.6603 102.973 76.6603H103.208V77.6006H102.855C102.503 77.6006 102.385 77.6006 102.267 77.7182C102.15 77.8357 102.032 78.0708 101.797 78.541C101.562 79.0112 101.445 79.3639 101.327 79.4814C101.209 79.599 100.974 79.8341 100.622 79.9516C101.092 80.0692 101.68 80.5394 102.15 81.3622L103.443 83.4781H102.15L100.857 81.3622C100.622 80.892 100.387 80.6569 100.152 80.5394C99.9164 80.4218 99.6813 80.3043 99.4462 80.3043V83.4781H98.2708V76.6603ZM103.796 80.1867C103.796 78.8937 104.148 77.9533 104.853 77.3655C105.441 76.8953 106.147 76.5427 107.087 76.5427C108.027 76.5427 108.85 76.8953 109.438 77.4831C110.026 78.0708 110.378 79.0112 110.378 80.0692C110.378 81.0096 110.261 81.7148 110.026 82.185C109.791 82.6552 109.32 83.1254 108.85 83.3605C108.38 83.5956 107.792 83.8307 107.204 83.8307C106.264 83.8307 105.441 83.4781 104.853 82.8903C104.148 82.3026 103.796 81.3622 103.796 80.1867ZM105.089 80.1867C105.089 81.1271 105.324 81.7148 105.676 82.185C106.029 82.6552 106.499 82.8903 107.204 82.8903C107.792 82.8903 108.262 82.6552 108.615 82.185C108.968 81.7148 109.203 81.0096 109.203 80.1867C109.203 79.3639 108.968 78.6586 108.615 78.1884C108.262 77.7182 107.792 77.4831 107.204 77.4831C106.617 77.4831 106.147 77.7182 105.676 78.1884C105.206 78.6586 105.089 79.3639 105.089 80.1867ZM111.789 76.6603H113.552L115.433 82.185L117.431 76.6603H119.077V83.5956H117.901V77.9533L115.903 83.5956H114.845L112.964 77.7182V83.5956H111.789V76.6603ZM120.958 76.6603H126.482V83.5956H125.307V77.6006H122.133V83.5956H120.958V76.6603ZM132.713 82.7728C132.242 83.1254 131.89 83.3605 131.42 83.5956C131.067 83.7132 130.597 83.8307 130.126 83.8307C129.421 83.8307 128.833 83.5956 128.363 83.243C128.011 82.8903 127.775 82.4201 127.775 81.8324C127.775 81.4798 127.893 81.1271 128.011 80.892C128.128 80.6569 128.363 80.4218 128.598 80.1867C128.833 80.0692 129.186 79.8341 129.421 79.8341C129.656 79.7165 130.009 79.7165 130.479 79.7165C131.42 79.599 132.125 79.4814 132.595 79.3639C132.595 79.2463 132.595 79.1288 132.595 79.0112C132.595 78.541 132.477 78.1884 132.242 77.9533C131.89 77.7182 131.537 77.6006 130.949 77.6006C130.362 77.6006 130.009 77.7182 129.774 77.8357C129.539 78.0708 129.304 78.4235 129.186 78.8937L128.011 78.7761C128.128 78.3059 128.246 77.8357 128.481 77.6006C128.716 77.248 129.069 77.0129 129.539 76.8953C130.009 76.7778 130.479 76.6603 131.067 76.6603C131.655 76.6603 132.125 76.7778 132.477 76.8953C132.83 77.0129 133.065 77.248 133.3 77.3655C133.418 77.6006 133.653 77.8357 133.653 78.1884C133.653 78.4235 133.653 78.7761 133.653 79.2463V80.7745C133.653 81.8324 133.653 82.5377 133.77 82.8903C133.77 83.1254 133.888 83.4781 134.006 83.7132H132.83C132.83 83.4781 132.83 83.1254 132.713 82.7728ZM132.595 80.1867C132.125 80.3043 131.537 80.5394 130.714 80.6569C130.244 80.7745 129.891 80.7745 129.656 80.892C129.421 81.0096 129.304 81.1271 129.186 81.2447C129.069 81.3622 129.069 81.5973 129.069 81.8324C129.069 82.185 129.186 82.4201 129.421 82.6552C129.656 82.8903 130.009 83.0079 130.479 83.0079C130.949 83.0079 131.302 82.8903 131.655 82.6552C132.007 82.4201 132.242 82.185 132.477 81.8324C132.595 81.5973 132.713 81.1271 132.713 80.6569C132.595 80.6569 132.595 80.1867 132.595 80.1867ZM135.651 76.6603H136.827V79.599H140.118V76.6603H141.294V83.5956H140.118V80.5394H136.827V83.5956H135.651V76.6603ZM143.057 76.6603H144.232V81.95L147.524 76.6603H148.817V83.5956H147.641V78.4235L144.35 83.7132H143.057V76.6603ZM155.987 76.6603V83.5956H154.812V80.892H154.106C153.636 80.892 153.401 80.892 153.166 81.0096C152.931 81.1271 152.696 81.4798 152.226 82.0675L151.168 83.5956H149.757L151.05 81.7149C151.403 81.1271 151.873 80.7745 152.226 80.7745C151.52 80.6569 151.05 80.4218 150.697 80.0692C150.345 79.7165 150.227 79.2463 150.227 78.6586C150.227 78.0708 150.462 77.6006 150.815 77.248C151.285 76.8953 151.873 76.6603 152.696 76.6603H155.987ZM154.812 77.7182H153.166C152.461 77.7182 151.991 77.8357 151.755 78.0708C151.52 78.3059 151.403 78.541 151.403 78.8937C151.403 79.3639 151.52 79.599 151.873 79.8341C152.226 80.0692 152.696 80.0692 153.401 80.0692H154.694C154.812 79.9516 154.812 77.7182 154.812 77.7182ZM97.5655 59.1455V39.3973H101.445V59.1455H97.5655ZM105.089 59.1455V39.3973H119.194V42.6887H108.968V47.038H118.489V50.3293H108.968V55.7366H119.665V59.0279C119.665 59.1455 105.089 59.1455 105.089 59.1455ZM131.772 51.8575V48.5661H140.118V56.4419C139.295 57.2647 138.12 57.97 136.592 58.5577C135.064 59.1455 133.535 59.4981 131.89 59.4981C129.891 59.4981 128.128 59.0279 126.718 58.2051C125.189 57.3823 124.131 56.0892 123.426 54.4435C122.721 52.7979 122.251 51.0346 122.251 49.1538C122.251 47.038 122.721 45.2747 123.544 43.6291C124.367 41.9834 125.542 40.8079 127.188 39.985C128.363 39.2798 129.891 39.0447 131.772 39.0447C134.123 39.0447 136.004 39.5148 137.297 40.5728C138.59 41.6307 139.53 43.0413 139.883 44.8045L136.004 45.5098C135.769 44.5694 135.181 43.7466 134.476 43.1589C133.77 42.5711 132.83 42.336 131.655 42.336C130.009 42.336 128.598 42.9238 127.658 43.9817C126.718 45.0396 126.13 46.6853 126.13 48.9188C126.13 51.2697 126.6 53.033 127.658 54.2084C128.716 55.3839 130.009 55.9717 131.655 55.9717C132.477 55.9717 133.3 55.8541 134.123 55.5015C134.946 55.1488 135.651 54.7962 136.239 54.326V51.8575H131.772ZM143.645 59.1455V39.3973H149.404L152.813 52.9154L156.222 39.3973H161.982V59.1455H158.456V43.6291L154.694 59.1455H150.933L147.171 43.6291V59.1455H143.645ZM183.141 59.1455H179.027L177.381 54.6786H169.74L168.095 59.1455H163.981L171.386 39.3973H175.5L183.141 59.1455ZM176.088 51.2697L173.384 43.9817L170.798 51.2697H176.088Z" fill="white"/>
</svg>
