<svg width="111" height="59" viewBox="0 0 111 59" fill="none" xmlns="http://www.w3.org/2000/svg">
<path fill-rule="evenodd" clip-rule="evenodd" d="M28.8543 0.89917C44.8132 0.89917 57.7086 13.7945 57.7086 29.7535C57.7086 45.7124 44.8132 58.6078 28.8543 58.6078C12.8954 58.6078 0 45.7124 0 29.7535C0 13.7945 12.8954 0.89917 28.8543 0.89917ZM1.99487 35.7381V23.7689H5.77086C7.19577 23.7689 8.12195 23.8401 8.54942 23.9826C9.19063 24.1963 9.76059 24.5526 10.1881 25.1225C10.6155 25.6925 10.8293 26.4762 10.8293 27.4736C10.8293 28.1861 10.6868 28.8273 10.473 29.326C10.1881 29.8247 9.90308 30.2522 9.47561 30.5372C9.04814 30.8221 8.69192 31.0359 8.26445 31.1071C7.69448 31.2496 6.91078 31.2496 5.8421 31.2496H4.34596V35.7381H1.99487ZM4.34596 25.7637V29.1835H5.62838C6.55456 29.1835 7.19576 29.1123 7.48074 28.9698C7.76573 28.8273 8.05071 28.6848 8.1932 28.3998C8.33569 28.1148 8.47818 27.8298 8.47818 27.4736C8.47818 27.0462 8.33569 26.6899 8.12196 26.4049C7.90822 26.12 7.55199 25.9775 7.19577 25.835C6.91079 25.7637 6.34082 25.7637 5.48588 25.7637H4.34596ZM22.0148 35.7381H19.5212L18.5237 33.0307H13.8928L12.8954 35.7381H10.4018L14.8903 23.7689H17.3838L22.0148 35.7381ZM17.7401 30.9646L16.1014 26.5474L14.534 30.9646C14.6053 30.9646 17.7401 30.9646 17.7401 30.9646ZM23.2972 35.7381V23.7689H28.2131C29.4243 23.7689 30.3505 23.9114 30.9204 24.1251C31.4904 24.3388 31.9178 24.6951 32.2741 25.265C32.6303 25.835 32.7728 26.4762 32.7728 27.1174C32.7728 28.0436 32.4878 28.756 31.9891 29.326C31.4904 29.896 30.7067 30.2522 29.7092 30.4659C30.208 30.7509 30.6354 31.1071 30.9204 31.4634C31.2766 31.8196 31.7041 32.4608 32.2741 33.387L33.699 35.7381H30.9204L29.2105 33.102C28.6406 32.1758 28.2131 31.6058 27.9994 31.3209C27.7856 31.1071 27.5719 30.8934 27.2869 30.8221C27.0019 30.7509 26.6457 30.6797 26.0757 30.6797H25.577V35.6668C25.6483 35.7381 23.2972 35.7381 23.2972 35.7381ZM25.6483 28.8273H27.3582C28.4981 28.8273 29.2105 28.756 29.4243 28.6848C29.7092 28.6135 29.923 28.3998 30.0655 28.1861C30.208 27.9723 30.2792 27.6161 30.2792 27.2599C30.2792 26.8324 30.208 26.5474 29.9942 26.2625C29.7805 26.0487 29.4955 25.835 29.1393 25.7637C28.9256 25.7637 28.3556 25.6925 27.4294 25.6925H25.577L25.6483 28.8273ZM45.4544 35.7381H42.9608L41.9634 33.0307H37.2612L36.2638 35.7381H33.7702L38.2587 23.7689H40.7522L45.4544 35.7381ZM41.1085 30.9646L39.4698 26.5474L37.9024 30.9646C37.9737 30.9646 41.1085 30.9646 41.1085 30.9646ZM46.6656 23.7689H50.9403C51.9378 23.7689 52.6502 23.8401 53.1489 23.9826C53.7901 24.1963 54.4313 24.5526 54.8588 25.0513C55.3575 25.55 55.7137 26.1912 55.9987 26.9749C56.2837 27.7586 56.3549 28.6848 56.3549 29.8247C56.3549 30.8221 56.2124 31.6771 55.9987 32.3895C55.7137 33.2445 55.2863 33.9569 54.7876 34.5269C54.3601 34.9544 53.8614 35.2393 53.1489 35.4531C52.6502 35.5956 51.9377 35.7381 51.0828 35.7381H46.6656V23.7689ZM49.0167 25.7637V33.672H50.7266C51.3678 33.672 51.8665 33.6007 52.1515 33.5295C52.5077 33.4582 52.8639 33.2445 53.0777 33.0307C53.3627 32.817 53.5051 32.3895 53.7189 31.8908C53.8614 31.3209 53.9326 30.6084 53.9326 29.6822C53.9326 28.756 53.8614 28.0436 53.7189 27.5449C53.5764 27.0462 53.3627 26.6899 53.0777 26.4049C52.7927 26.12 52.4365 25.9062 52.009 25.835C51.6528 25.7637 51.0116 25.6925 50.0854 25.6925H49.0167V25.7637ZM59.1335 36.2368V24.2676H61.4846V36.2368H59.1335ZM63.7645 36.2368V24.2676H72.3139V26.2625H66.1155V28.8985H71.8864V30.8934H66.1155V34.1707H72.5989V36.1655H63.7645V36.2368ZM79.9371 31.8196V29.8247H84.9955V34.5981C84.4968 35.0969 83.7843 35.5243 82.8582 35.8806C81.932 36.2368 81.0058 36.4505 80.0083 36.4505C78.7972 36.4505 77.7285 36.1655 76.8736 35.6668C75.9474 35.1681 75.3062 34.3844 74.8787 33.387C74.4512 32.3895 74.1662 31.3209 74.1662 30.1809C74.1662 28.8985 74.4512 27.8298 74.9499 26.8324C75.4487 25.835 76.1611 25.1225 77.1585 24.6238C77.871 24.1963 78.7972 24.0539 79.9371 24.0539C81.362 24.0539 82.5019 24.3388 83.2856 24.98C84.0693 25.6212 84.6393 26.4762 84.853 27.5449L82.5019 27.9723C82.3594 27.4024 82.0032 26.9037 81.5758 26.5474C81.1483 26.1912 80.5783 26.0487 79.8659 26.0487C78.8684 26.0487 78.0135 26.4049 77.4435 27.0462C76.8736 27.6874 76.5173 28.6848 76.5173 30.0385C76.5173 31.4634 76.8023 32.532 77.4435 33.2445C78.0847 33.9569 78.8684 34.3132 79.8659 34.3132C80.3646 34.3132 80.8633 34.2419 81.362 34.0282C81.8607 33.8144 82.2882 33.6007 82.6444 33.3157V31.8196H79.9371ZM87.0616 36.2368V24.2676H90.5526L92.6188 32.4608L94.6849 24.2676H98.1759V36.2368H96.0385V26.8324L93.7587 36.2368H91.4788L89.2702 26.8324V36.2368H87.0616ZM111 36.2368H108.506L107.509 33.5295H102.878L101.881 36.2368H99.387L103.875 24.2676H106.369L111 36.2368ZM106.725 31.4634L105.087 27.0462L103.519 31.4634H106.725Z" fill="#272424"/>
</svg>
